<svg xmlns="http://www.w3.org/2000/svg" width="110.773" height="26.775" viewBox="0 0 110.773 26.775"><defs><style>.a,.b{fill:#313133;}.b{font-size:6px;font-family:Montserrat-SemiBold, Montserrat;font-weight:600;letter-spacing:0.08em;}</style></defs><g transform="translate(-125 -20.814)"><g transform="translate(125 21)"><path class="a" d="M340.755,101.01l-4.184-5.849-4.325,5.849H326.22l7.338-9.608-7.089-9.465h6.2l4.042,5.565,4.147-5.565h5.885l-7.089,9.323,7.374,9.749Z" transform="translate(-249.05 -74.705)"/><path class="a" d="M295.585,81.938l-8.048,19.072h-5.708l-8.011-19.072h5.708l5.282,12.976,5.459-12.976Z" transform="translate(-273.818 -74.705)"/><path class="a" d="M308.328,93.124H293.9a4.494,4.494,0,0,0,1.844,2.8,6.1,6.1,0,0,0,3.615,1.028A7.35,7.35,0,0,0,302,96.511a6.415,6.415,0,0,0,2.144-1.4l2.942,3.19q-2.695,3.084-7.87,3.085a12.447,12.447,0,0,1-5.708-1.259,9.225,9.225,0,0,1-3.829-3.492,9.617,9.617,0,0,1-1.346-5.07,9.758,9.758,0,0,1,1.328-5.051A9.322,9.322,0,0,1,293.315,83a11.3,11.3,0,0,1,10.263-.053,8.8,8.8,0,0,1,3.562,3.456,10.305,10.305,0,0,1,1.294,5.229Q308.434,91.743,308.328,93.124Zm-12.94-6.132a4.523,4.523,0,0,0-1.56,2.907h9.394a4.568,4.568,0,0,0-1.56-2.889,4.666,4.666,0,0,0-3.119-1.081A4.768,4.768,0,0,0,295.388,86.992Z" transform="translate(-266.957 -74.797)"/><path class="a" d="M323.865,77.027v26.3h-5.282v-2.2a7.291,7.291,0,0,1-5.955,2.483,9.9,9.9,0,0,1-4.875-1.206,8.618,8.618,0,0,1-3.421-3.439,11.41,11.41,0,0,1,0-10.351,8.627,8.627,0,0,1,3.421-3.439,9.9,9.9,0,0,1,4.875-1.206,7.257,7.257,0,0,1,5.708,2.3V77.027Zm-6.807,20.614a6.04,6.04,0,0,0,0-7.692,4.963,4.963,0,0,0-6.983,0,6.039,6.039,0,0,0,0,7.692,4.963,4.963,0,0,0,6.983,0Z" transform="translate(-259.982 -77.027)"/><rect class="a" width="5.53" height="19.073" transform="translate(68.278 7.232)"/><rect class="a" width="5.53" height="3.708" transform="translate(68.278)"/><rect class="a" width="8.998" height="3.708" transform="translate(26.928)"/></g><text class="b" transform="translate(225.773 26.814)"><tspan x="0" y="0">TM</tspan></text></g></svg>